<svg xmlns="http://www.w3.org/2000/svg" width="70" height="70" viewBox="0 0 70 70"><defs><style>.a{fill:#0b8688;stroke:#122f41;stroke-linejoin:round;stroke-width:3.74px;}.b{fill:#ea563d;}.c{fill:#122f41;}</style></defs><g transform="translate(-0.022 -0.022)"><circle class="a" cx="33.13" cy="33.13" r="33.13" transform="translate(1.892 1.892)"/><rect class="b" width="10.098" height="5.454" transform="translate(29.976 16.029)"/><path class="c" d="M40.071,23.353H29.976a1.87,1.87,0,0,1-1.87-1.87V16.029a1.87,1.87,0,0,1,1.87-1.87H40.071a1.87,1.87,0,0,1,1.87,1.87v5.454A1.87,1.87,0,0,1,40.071,23.353Zm-8.225-3.74H38.2V17.9H31.846Z"/><path class="b" d="M24.31,21.636H45.765v29.2a3.179,3.179,0,0,1-3.179,3.179H27.473a3.179,3.179,0,0,1-3.163-3.179Z"/><path class="c" d="M42.573,55.885h-15.1a5.055,5.055,0,0,1-5.033-5.049v-29.2a1.87,1.87,0,0,1,1.87-1.87H45.765a1.87,1.87,0,0,1,1.87,1.87v29.2a5.052,5.052,0,0,1-5.061,5.049ZM26.18,23.506v27.33a1.312,1.312,0,0,0,1.309,1.309H42.573a1.309,1.309,0,0,0,1.306-1.309V23.506Z"/><rect class="c" width="3.74" height="18.058" transform="translate(29.356 27.243)"/><rect class="c" width="3.74" height="18.058" transform="translate(36.951 27.243)"/><line class="b" y1="0.293" x2="31.534" transform="translate(19.255 21.337)"/><path class="c" d="M19.255,23.5a1.87,1.87,0,1,1-.016-3.74l31.534-.293H50.8a1.87,1.87,0,1,1,.019,3.74L19.273,23.5Z"/></g></svg>