<svg id="Laag_1" data-name="Laag 1" xmlns="http://www.w3.org/2000/svg" viewBox="0 0 224.6 224.6"><defs><style>.cls-1{fill:#0b8688;stroke-linejoin:round;}.cls-1,.cls-4{stroke:#122f41;stroke-width:12px;}.cls-2{fill:#ea563d;}.cls-3{fill:#122f41;}.cls-4{fill:none;stroke-linecap:round;stroke-miterlimit:10;}</style></defs><title>avatar 4</title><circle class="cls-1" cx="112.3" cy="112.3" r="106.3"/><rect class="cls-2" x="96.1" y="60.44" width="32.4" height="17.5"/><path class="cls-3" d="M128.5,83.94H96.1a6,6,0,0,1-6-6V60.44a6,6,0,0,1,6-6h32.4a6,6,0,0,1,6,6v17.5A6,6,0,0,1,128.5,83.94Zm-26.4-12h20.4v-5.5H102.1Z"/><path class="cls-2" d="M77.88,77.49h68.84a0,0,0,0,1,0,0v78.24a9.37,9.37,0,0,1-9.37,9.37H87.24a9.37,9.37,0,0,1-9.37-9.37V77.49A0,0,0,0,1,77.88,77.49Z"/><path class="cls-3" d="M136.52,170.16H88.08c-8.93,0-16.2-6.13-16.2-13.66v-79c0-2.8,2.69-5.06,6-5.06h68.84c3.31,0,6,2.26,6,5.06v79C152.72,164,145.45,170.16,136.52,170.16ZM83.88,82.55v74c0,1.95,1.88,3.54,4.2,3.54h48.44c2.32,0,4.2-1.59,4.2-3.54V82.55Z"/><rect class="cls-3" x="94.11" y="96.41" width="12" height="26.63" rx="6"/><rect class="cls-3" x="118.48" y="96.41" width="12" height="26.63" rx="6"/><line class="cls-2" x1="61.71" y1="78.4" x2="162.89" y2="77.46"/><path class="cls-3" d="M61.71,84.4a6,6,0,0,1-.05-12l101.17-.94h.06a6,6,0,0,1,.05,12L61.77,84.4Z"/><path class="cls-4" d="M94.35,135.51h0a34.35,34.35,0,0,0,35.9,0h0"/></svg>