<svg id="Laag_1" data-name="Laag 1" xmlns="http://www.w3.org/2000/svg" viewBox="0 0 224.6 224.6"><defs><style>.cls-1{fill:#56b470;stroke:#122f41;stroke-linejoin:round;stroke-width:12px;}.cls-2{fill:#0b8688;}.cls-3{fill:#122f41;}</style></defs><title>avatar 2</title><circle class="cls-1" cx="112.3" cy="112.3" r="106.3"/><path class="cls-2" d="M85.16,159.29h0C73.48,148.48,70.59,132,78,118.28L112.3,54.91h0l34.31,63.37c7.4,13.68,4.51,30.2-7.18,41h0C124.51,173.1,100.09,173.1,85.16,159.29Z"/><path class="cls-3" d="M112.3,175.24a46,46,0,0,1-31.38-12h0c-13.54-12.53-16.87-31.59-8.3-47.42l34.31-63.38a6.23,6.23,0,0,1,10.73,0L152,115.8c8.58,15.83,5.24,34.89-8.29,47.42A46,46,0,0,1,112.3,175.24Zm0-107.94h0L83.35,120.77c-6.25,11.55-3.82,25.46,6.06,34.59h0a34.26,34.26,0,0,0,45.78,0c9.88-9.14,12.31-23.05,6.06-34.6Z"/><path class="cls-3" d="M105.83,114.42v22.76c0,2.93-2.69,5.3-6,5.3s-6-2.37-6-5.3V114.42c0-2.92,2.69-5.3,6-5.3S105.83,111.5,105.83,114.42Z"/><path class="cls-3" d="M130.77,114.42v22.76c0,2.93-2.69,5.3-6,5.3s-6-2.37-6-5.3V114.42c0-2.92,2.69-5.3,6-5.3S130.77,111.5,130.77,114.42Z"/><circle class="cls-3" cx="112.3" cy="154.67" r="5.31"/></svg>