<svg id="Laag_1" data-name="Laag 1" xmlns="http://www.w3.org/2000/svg" viewBox="0 0 224.6 224.6"><defs><style>.cls-1,.cls-4{fill:#f3b232;}.cls-1,.cls-4,.cls-5{stroke:#122f41;}.cls-1{stroke-linejoin:round;stroke-width:12px;}.cls-2{fill:#56b470;}.cls-3{fill:#122f41;}.cls-4,.cls-5{stroke-miterlimit:10;stroke-width:10.06px;}.cls-5{fill:none;stroke-linecap:round;}</style></defs><title>avatar 3</title><circle class="cls-1" cx="112.3" cy="112.3" r="106.3"/><path class="cls-2" d="M136.34,56h10a0,0,0,0,1,0,0V66a58.11,58.11,0,0,1-58.11,58.11h-10a0,0,0,0,1,0,0v-10A58.11,58.11,0,0,1,136.34,56Z" transform="translate(-30.79 105.74) rotate(-44.98)"/><path class="cls-3" d="M114.42,143.56a5.73,5.73,0,0,1-6.2-1.28l-7.09-7.08a63.86,63.86,0,0,1,0-90.31l7.08-7.08a5.75,5.75,0,0,1,8.13,0l7.08,7.08a63.88,63.88,0,0,1,0,90.32l-7.09,7.08A5.84,5.84,0,0,1,114.42,143.56ZM112.3,50l-3,3a52.36,52.36,0,0,0,0,74.06l3,3,3-3a52.36,52.36,0,0,0,0-74.06Z"/><path class="cls-3" d="M114.41,137.27a5.82,5.82,0,0,1-2.14.4,5.74,5.74,0,0,1-5.74-5.74V76.3a5.75,5.75,0,0,1,11.5,0l0,55.63A5.76,5.76,0,0,1,114.41,137.27Z"/><path class="cls-2" d="M170.4,70.71h10a0,0,0,0,1,0,0v10a58.11,58.11,0,0,1-58.11,58.11h-10a0,0,0,0,1,0,0v-10A58.11,58.11,0,0,1,170.4,70.71Z"/><path class="cls-3" d="M110,144.11a5.74,5.74,0,0,1-3.48-5.28v-10A63.86,63.86,0,0,1,170.41,65h10a5.75,5.75,0,0,1,5.74,5.75v10a63.86,63.86,0,0,1-63.88,63.85h-10A5.71,5.71,0,0,1,110,144.11Zm64.67-67.65h-4.27A52.37,52.37,0,0,0,118,128.81v4.27h4.27a52.37,52.37,0,0,0,52.39-52.36Z"/><path class="cls-3" d="M114.46,139.66a5.68,5.68,0,0,1-1.8-1.22,5.76,5.76,0,0,1,0-8.13L152,91a5.74,5.74,0,1,1,8.12,8.12l-39.34,39.33A5.77,5.77,0,0,1,114.46,139.66Z"/><path class="cls-2" d="M102.28,70.71h10a0,0,0,0,1,0,0v10a58.11,58.11,0,0,1-58.11,58.11h-10a0,0,0,0,1,0,0v-10a58.11,58.11,0,0,1,58.11-58.11Z" transform="translate(-26.56 182.98) rotate(-89.98)"/><path class="cls-3" d="M117.57,141.11a5.74,5.74,0,0,1-5.28,3.48h-10A63.86,63.86,0,0,1,38.43,80.71v-10A5.75,5.75,0,0,1,44.18,65h10A63.85,63.85,0,0,1,118,128.83v10A5.67,5.67,0,0,1,117.57,141.11ZM49.92,76.45v4.27a52.37,52.37,0,0,0,52.35,52.38h4.27v-4.27A52.37,52.37,0,0,0,54.19,76.45Z"/><path class="cls-3" d="M113.12,136.67a5.76,5.76,0,0,1-9.35,1.79L64.44,99.11A5.75,5.75,0,0,1,72.57,91l39.33,39.35A5.77,5.77,0,0,1,113.12,136.67Z"/><circle class="cls-4" cx="112.3" cy="134.33" r="40.15"/><path class="cls-5" d="M97.26,152.84h0a28.77,28.77,0,0,0,30.08,0h0"/><path class="cls-3" d="M105.83,115.2V139a6,6,0,0,1-12,0V115.2a6,6,0,0,1,12,0Z"/><path class="cls-3" d="M130.77,115.2V139a6,6,0,0,1-12,0V115.2a6,6,0,0,1,12,0Z"/></svg>