<svg id="Laag_1" data-name="Laag 1" xmlns="http://www.w3.org/2000/svg" viewBox="0 0 224.6 224.6"><defs><style>.cls-1,.cls-4{fill:#ea563d;}.cls-1,.cls-5{stroke:#122f41;stroke-width:12px;}.cls-1{stroke-linejoin:round;}.cls-2{fill:#f3b234;}.cls-3{fill:#122f41;}.cls-5{fill:none;stroke-linecap:round;stroke-miterlimit:10;}</style></defs><title>avatar 1</title><circle class="cls-1" cx="112.3" cy="112.3" r="106.3"/><path class="cls-2" d="M69.81,126q.07,1.84.3,3.69a42.52,42.52,0,0,0,39.57,37.13c.78,0,1.57.08,2.36.08a42.51,42.51,0,0,0,42.75-44.14c0-1.23-.15-2.47-.3-3.69a42.6,42.6,0,0,0-27-34.42V73.3H97.12V84.65A42.48,42.48,0,0,0,69.81,126Z"/><path class="cls-3" d="M97.12,67.3h30.36a6,6,0,0,1,6,6v7.39a48.6,48.6,0,0,1,27,37.62c.17,1.32.28,2.7.34,4.19A48.5,48.5,0,0,1,112,172.88c-.82,0-1.7,0-2.68-.09a48.52,48.52,0,0,1-45.16-42.37c-.19-1.5-.3-2.87-.35-4.22A48.51,48.51,0,0,1,91.12,80.71V73.3A6,6,0,0,1,97.12,67.3Zm24.36,12H103.12v5.35a6,6,0,0,1-3.86,5.6,36.5,36.5,0,0,0-23.45,35.5v0c0,1,.12,2,.26,3.18A36.09,36.09,0,0,0,86.89,150.6,36.5,36.5,0,0,0,110,160.81c.67,0,1.35.07,2,.07h.22A36.5,36.5,0,0,0,148.79,123c0-1.13-.13-2.16-.25-3.16a36.57,36.57,0,0,0-23.2-29.57,6,6,0,0,1-3.86-5.61Z"/><path class="cls-4" d="M98,39.71h28.59a0,0,0,0,1,0,0V41A14.29,14.29,0,0,1,112.3,55.24h0A14.29,14.29,0,0,1,98,41V39.71A0,0,0,0,1,98,39.71Z" transform="translate(224.6 94.96) rotate(180)"/><path class="cls-3" d="M112.3,33.71A20.32,20.32,0,0,1,132.59,54v1.23a6,6,0,0,1-6,6H98a6,6,0,0,1-6-6V54A20.32,20.32,0,0,1,112.3,33.71Zm6.78,15.53a8.29,8.29,0,0,0-13.57,0Z"/><path class="cls-3" d="M105.83,103.24V129a6,6,0,0,1-12,0V103.24a6,6,0,0,1,12,0Z"/><path class="cls-3" d="M130.77,103.24V129a6,6,0,0,1-12,0V103.24a6,6,0,0,1,12,0Z"/><path class="cls-5" d="M94.35,144.45h0a34.35,34.35,0,0,0,35.9,0h0"/></svg>