<svg xmlns="http://www.w3.org/2000/svg" width="70" height="70" viewBox="0 0 70 70"><defs><style>.a{fill:#f2b134;}.b{fill:#112f41;}.c{fill:#068587;}</style></defs><circle class="a" cx="33.108" cy="33.108" r="33.108" transform="translate(1.892 1.892)"/><path class="b" d="M35,70A35,35,0,1,1,70,35,35,35,0,0,1,35,70ZM35,3.784A31.216,31.216,0,1,0,66.216,35,31.216,31.216,0,0,0,35,3.784Z"/><rect class="c" width="10.197" height="20.297" transform="translate(29.901 24.834)"/><path class="b" d="M40.1,47.02H29.9a1.892,1.892,0,0,1-1.892-1.892V24.834A1.892,1.892,0,0,1,29.9,22.942H40.1a1.892,1.892,0,0,1,1.892,1.892V45.128A1.892,1.892,0,0,1,40.1,47.02Zm-8.305-3.784h6.414V26.726H31.793Z"/><rect class="c" width="15.249" height="5.07" transform="translate(27.376 46.181)"/><path class="b" d="M42.624,53.143H27.376a1.892,1.892,0,0,1-1.892-1.892v-5.07a1.892,1.892,0,0,1,1.892-1.892H42.624a1.892,1.892,0,0,1,1.892,1.892v5.07a1.892,1.892,0,0,1-1.892,1.892ZM29.268,49.359H40.732V48.073H29.268Z"/><rect class="c" width="15.249" height="6.051" transform="translate(27.376 17.522)"/><path class="b" d="M42.624,25.465H27.376a1.892,1.892,0,0,1-1.892-1.892V17.522a1.892,1.892,0,0,1,1.892-1.892H42.624a1.892,1.892,0,0,1,1.892,1.892v6.051a1.892,1.892,0,0,1-1.892,1.892ZM29.268,21.681H40.732V19.414H29.268Z"/><path class="b" d="M46.982,19.162H23.018a1.892,1.892,0,1,1,0-3.784H46.982a1.892,1.892,0,0,1,0,3.784Z"/><path class="b" d="M46.982,53.531H23.018a1.892,1.892,0,1,1,0-3.784H46.982a1.892,1.892,0,0,1,0,3.784Z"/><path class="b" d="M35,45.964a1.892,1.892,0,0,1-1.892-1.892V25.783a1.892,1.892,0,1,1,3.784,0V44.072A1.892,1.892,0,0,1,35,45.964Z"/></svg>