<svg xmlns="http://www.w3.org/2000/svg" width="70" height="70" viewBox="0 0 70 70"><defs><style>.a{fill:#f3b234;stroke:#122f41;stroke-miterlimit:10;stroke-width:3.74px;}.b{fill:#122f41;}</style></defs><circle class="a" cx="33.13" cy="33.13" r="33.13" transform="translate(1.87 1.87)"/><path class="b" d="M29.708,47.264a11.691,11.691,0,0,1-4.75-4.878,15.549,15.549,0,0,1-1.68-7.415,15.424,15.424,0,0,1,1.68-7.377,11.691,11.691,0,0,1,4.75-4.843,14.581,14.581,0,0,1,7.168-1.7,14.667,14.667,0,0,1,8.611,2.587,3.011,3.011,0,0,1,.951.982,2.92,2.92,0,0,1,.29,1.39,3.1,3.1,0,0,1-.676,2.026,2.045,2.045,0,0,1-1.642.832,2.964,2.964,0,0,1-1.041-.175,6.149,6.149,0,0,1-1.081-.561,10.958,10.958,0,0,0-2.549-1.156,8.727,8.727,0,0,0-2.472-.349A6.223,6.223,0,0,0,32.148,28.7q-1.689,2.066-1.68,6.277,0,4.251,1.68,6.314a6.218,6.218,0,0,0,5.118,2.066,6.894,6.894,0,0,0,2.241-.368q1.081-.365,2.78-1.138a13.186,13.186,0,0,1,1.2-.58,2.493,2.493,0,0,1,.935-.156,2.045,2.045,0,0,1,1.642.832,3.1,3.1,0,0,1,.676,2.026,2.634,2.634,0,0,1-1.247,2.4,14.676,14.676,0,0,1-8.611,2.587A14.506,14.506,0,0,1,29.708,47.264Z"/></svg>