<svg xmlns="http://www.w3.org/2000/svg" width="70" height="70" viewBox="0 0 70 70"><defs><style>.a,.d{fill:#ea563d;}.a{stroke:#122f41;stroke-linejoin:round;stroke-width:3.74px;}.b{fill:#f3b234;}.c{fill:#122f41;}</style></defs><g transform="translate(-0.022 -0.022)"><circle class="a" cx="33.13" cy="33.13" r="33.13" transform="translate(1.892 1.892)"/><path class="b" d="M48.264,27.953a9.533,9.533,0,0,0-.093-1.15A13.252,13.252,0,0,0,35.841,15.231c-.246,0-.492-.025-.736-.025A13.255,13.255,0,0,0,21.779,28.963c.016.386.047.77.1,1.15a13.249,13.249,0,0,0,8.418,10.715v3.531h9.459V40.828a13.24,13.24,0,0,0,8.512-12.881Z"/><path class="c" d="M39.753,46.242H30.294a1.87,1.87,0,0,1-1.87-1.87v-2.3a15.141,15.141,0,0,1-8.415-11.722c-.053-.415-.087-.845-.106-1.306a15.119,15.119,0,0,1,15.2-15.7c.256,0,.53,0,.835.028A15.116,15.116,0,0,1,50.016,26.576c.059.467.094.894.109,1.315a15.119,15.119,0,0,1-8.5,14.184v2.306A1.87,1.87,0,0,1,39.753,46.242ZM32.164,42.5h5.719V40.828a1.87,1.87,0,0,1,1.2-1.745A11.385,11.385,0,0,0,46.4,28.019h0a9.194,9.194,0,0,0-.081-.991,11.388,11.388,0,0,0-10.6-9.933c-.209,0-.421-.022-.623-.022h-.069A11.385,11.385,0,0,0,23.649,28.891c.016.352.041.676.081.988a11.264,11.264,0,0,0,3.385,6.757A11.413,11.413,0,0,0,30.973,39.1a1.87,1.87,0,0,1,1.2,1.745Z"/><path class="d" d="M30.568,50h8.911v.386a4.454,4.454,0,0,1-4.457,4.466h0A4.454,4.454,0,0,1,30.568,50.4v-.386Z"/><path class="c" d="M35.022,56.723A6.333,6.333,0,0,1,28.7,50.4v-.383a1.87,1.87,0,0,1,1.87-1.87h8.911a1.87,1.87,0,0,1,1.87,1.87V50.4A6.336,6.336,0,0,1,35.022,56.723Zm-2.113-4.84a2.584,2.584,0,0,0,4.229,0Z"/><path class="c" d="M35.022,46.223a1.87,1.87,0,0,1-1.87-1.87V33.133a1.87,1.87,0,0,1,3.74,0v11.22a1.87,1.87,0,0,1-1.87,1.87Z"/><path class="c" d="M39.039,34.654H31.008a1.87,1.87,0,0,1,0-3.74h8.032a1.87,1.87,0,1,1,0,3.74Z"/></g></svg>