<svg xmlns="http://www.w3.org/2000/svg" width="70" height="70" viewBox="0 0 70 70"><defs><style>.a{fill:#068587;}.a,.b,.c{stroke:#112f41;stroke-linejoin:round;stroke-width:3.784px;}.b{fill:#4fb970;}.c{fill:none;stroke-linecap:round;}</style></defs><circle class="a" cx="33.108" cy="33.108" r="33.108" transform="translate(1.892 1.892)"/><path class="b" d="M22.832,51.381l16.671-8.7L26.345,32.909Z"/><path class="c" d="M46.1,21.375h0a4.966,4.966,0,0,1-2.548,4.165l-.776.429a8.977,8.977,0,0,0-4.383,5.8h0"/><path class="c" d="M54.881,36.532h0a9.217,9.217,0,0,0-7.167,1.577h0a2.885,2.885,0,0,1-3.059.2l-.382-.2"/><path class="c" d="M30.614,27.953h0a4.85,4.85,0,0,1-.87-4.509l.091-.29a6.905,6.905,0,0,0-.785-5.811h0"/><line class="c" x2="0.003" y2="0.003" transform="translate(46.096 21.375)"/><line class="c" x2="0.003" y2="0.003" transform="translate(37.888 19.206)"/><line class="c" x2="0.003" y2="0.003" transform="translate(47.023 30.705)"/><line class="c" transform="translate(23.463 22.239)"/><line class="c" x2="0.003" y2="0.003" transform="translate(50.293 42.167)"/><line class="c" x2="18.336" y2="13.622" transform="translate(23.743 31.002)"/></svg>