<svg xmlns="http://www.w3.org/2000/svg" width="70" height="70" viewBox="0 0 70 70"><defs><style>.a,.d{fill:#f3b234;}.a{stroke:#122f41;stroke-miterlimit:10;stroke-width:3.74px;}.b{fill:#56b470;}.c{fill:#122f41;}</style></defs><g transform="translate(-0.159 -0.022)"><circle class="a" cx="33.13" cy="33.13" r="33.13" transform="translate(2.029 1.892)"/><path class="b" d="M39.5,15.727h2.263v2.256A11.22,11.22,0,0,1,30.543,29.2H28.287v-2.26a11.22,11.22,0,0,1,11.22-11.22Z" transform="matrix(0.7, -0.714, 0.714, 0.7, -5.532, 31.768)"/><path class="c" d="M35.122,33.859a1.87,1.87,0,0,1-1.309-.533L32.2,31.746a13.09,13.09,0,0,1-.193-18.507l1.58-1.611a1.87,1.87,0,0,1,2.643-.028l1.614,1.58a13.09,13.09,0,0,1,.193,18.507h0L36.465,33.3a1.87,1.87,0,0,1-1.343.561ZM34.95,15.583l-.271.277a9.35,9.35,0,0,0,.137,13.218l.277.271.271-.277a9.35,9.35,0,0,0-.146-13.221Z"/><path class="c" d="M35.15,36.571a1.87,1.87,0,0,1-1.87-1.851l-.112-11a1.87,1.87,0,0,1,1.848-1.9h.022a1.87,1.87,0,0,1,1.87,1.851l.115,11a1.87,1.87,0,0,1-1.851,1.889Z"/><path class="b" d="M28.7,22.128h2.26v2.26a11.22,11.22,0,0,1-11.22,11.22H17.481v-2.26A11.22,11.22,0,0,1,28.7,22.128Z" transform="matrix(-0.269, -0.963, 0.963, -0.269, 2.939, 59.939)"/><path class="c" d="M27.308,36.427a13.09,13.09,0,0,1-12.582-9.571L14.1,24.675a1.87,1.87,0,0,1,1.3-2.3l2.182-.623a13.09,13.09,0,0,1,16.132,9.107l.623,2.182a1.87,1.87,0,0,1-1.3,2.3l-2.182.608a13.124,13.124,0,0,1-3.55.48ZM18.223,25.476l.1.374a9.35,9.35,0,0,0,11.532,6.489l.374-.106-.1-.371h0A9.35,9.35,0,0,0,18.6,25.373Z"/><path class="c" d="M34.878,36.733a1.87,1.87,0,0,1-.916-.24l-9.584-5.4a1.871,1.871,0,1,1,1.836-3.26l9.584,5.4a1.87,1.87,0,0,1-.935,3.5Z"/><path class="b" d="M28.826,34.676h2.26v2.26a11.22,11.22,0,0,1-11.22,11.22H17.612V45.9a11.22,11.22,0,0,1,11.22-11.22Z" transform="translate(37.63 87.581) rotate(-165.6)"/><path class="c" d="M21.122,49.05a13.012,13.012,0,0,1-3.254-.415l-2.182-.561a1.87,1.87,0,0,1-1.35-2.278l.561-2.182A13.09,13.09,0,0,1,30.827,34.19h0l2.182.564a1.87,1.87,0,0,1,1.346,2.275l-.561,2.182A13.115,13.115,0,0,1,21.122,49.05Zm-2.7-4.133.377.1a9.35,9.35,0,0,0,11.376-6.729l.1-.374-.374-.1A9.35,9.35,0,0,0,18.519,44.54Z"/><path class="c" d="M25.413,42.654a1.87,1.87,0,0,1-.954-3.481l9.472-5.61A1.877,1.877,0,0,1,35.841,36.8l-9.478,5.591a1.87,1.87,0,0,1-.951.268Z"/><path class="b" d="M39.778,40.844h2.26V43.1a11.22,11.22,0,0,1-11.22,11.22H28.561V52.048a11.22,11.22,0,0,1,11.22-11.22Z" transform="matrix(-0.7, 0.714, -0.714, -0.7, 93.992, 55.657)"/><path class="c" d="M35.4,58.98a1.87,1.87,0,0,1-1.309-.533l-1.614-1.58a13.09,13.09,0,0,1-.193-18.507h0l1.58-1.614a1.87,1.87,0,0,1,2.646-.028L38.12,38.3A13.09,13.09,0,0,1,38.313,56.8l-1.58,1.614a1.87,1.87,0,0,1-1.315.561Zm-.443-18a9.35,9.35,0,0,0,.137,13.215l.277.271.271-.277A9.35,9.35,0,0,0,35.5,40.972l-.277-.271Z"/><path class="c" d="M35.284,48.215a1.87,1.87,0,0,1-1.87-1.848l-.115-11a1.87,1.87,0,0,1,1.851-1.889h.019a1.87,1.87,0,0,1,1.87,1.848l.112,11A1.87,1.87,0,0,1,35.3,48.215Z"/><path class="b" d="M50.58,34.455h2.26v2.26a11.22,11.22,0,0,1-11.22,11.22H39.363v-2.26A11.22,11.22,0,0,1,50.58,34.455Z" transform="matrix(0.269, 0.963, -0.963, 0.269, 73.382, -14.287)"/><path class="c" d="M49.215,48.76a13.09,13.09,0,0,1-12.607-9.568h0L36,37.01a1.87,1.87,0,0,1,1.3-2.3l2.182-.608A13.09,13.09,0,0,1,55.6,43.184l.623,2.182a1.87,1.87,0,0,1-1.3,2.3l-2.182.623a13.059,13.059,0,0,1-3.531.467ZM40.2,38.185a9.35,9.35,0,0,0,11.532,6.489l.374-.1-.1-.374a9.35,9.35,0,0,0-11.532-6.489l-.374.1Z"/><path class="c" d="M45.023,42.455a1.842,1.842,0,0,1-.916-.243l-9.584-5.4a1.87,1.87,0,1,1,1.836-3.257l9.584,5.4a1.87,1.87,0,0,1-.919,3.5Z"/><path class="b" d="M50.452,21.894h2.26v2.26a11.22,11.22,0,0,1-11.22,11.22h-2.26v-2.26A11.22,11.22,0,0,1,50.452,21.894Z" transform="translate(8.568 -10.534) rotate(14.4)"/><path class="c" d="M42.773,36.272a13.09,13.09,0,0,1-3.279-.43l-2.182-.561a1.87,1.87,0,0,1-1.346-2.275l.561-2.182a13.09,13.09,0,0,1,15.926-9.415l2.182.564a1.87,1.87,0,0,1,1.346,2.275l-.561,2.182a13.09,13.09,0,0,1-12.65,9.836Zm-2.724-4.136.374.1h0A9.35,9.35,0,0,0,51.8,25.5l.1-.374-.377-.1a9.35,9.35,0,0,0-11.376,6.726Z"/><path class="c" d="M35.439,36.733a1.87,1.87,0,0,1-.954-3.481l9.472-5.61a1.87,1.87,0,0,1,1.9,3.22l-9.472,5.61a1.87,1.87,0,0,1-.951.262Z"/><circle class="d" cx="4.32" cy="4.32" r="4.32" transform="translate(30.839 30.702)"/><path class="c" d="M35.159,41.211a6.19,6.19,0,1,1,6.19-6.19A6.19,6.19,0,0,1,35.159,41.211Zm0-8.636a2.45,2.45,0,1,0,2.45,2.447,2.45,2.45,0,0,0-2.45-2.447Z"/></g></svg>