<svg xmlns="http://www.w3.org/2000/svg" width="70" height="70" viewBox="0 0 70 70"><defs><style>.a{fill:#ed553b;}.b{fill:#112f41;}.c{fill:#068587;}</style></defs><circle class="a" cx="33.108" cy="33.108" r="33.108" transform="translate(1.892 1.892)"/><path class="b" d="M35,70A35,35,0,1,1,70,35,35,35,0,0,1,35,70ZM35,3.784A31.216,31.216,0,1,0,66.216,35,31.216,31.216,0,0,0,35,3.784Z"/><path class="b" d="M26.641,33.029H43.353a5.326,5.326,0,0,1,5.326,5.326v5.71H21.315v-5.71a5.326,5.326,0,0,1,5.326-5.326Z"/><path class="b" d="M48.685,45.5H21.315a1.438,1.438,0,0,1-1.45-1.438v-5.71a6.773,6.773,0,0,1,6.764-6.764H43.34a6.773,6.773,0,0,1,6.8,6.764v5.71a1.438,1.438,0,0,1-1.45,1.438ZM22.753,42.627H47.247V38.355a3.891,3.891,0,0,0-3.888-3.888H26.647a3.891,3.891,0,0,0-3.888,3.888Z"/><path class="b" d="M50.715,36.29H47.988a2.56,2.56,0,0,1-2.554-2.554v-.359a2.557,2.557,0,0,1,2.554-2.554h2.727a1.892,1.892,0,0,1,1.892,1.892V34.4A1.892,1.892,0,0,1,50.715,36.29Z"/><path class="b" d="M22.012,36.29H19.285A1.892,1.892,0,0,1,17.393,34.4V32.714a1.892,1.892,0,0,1,1.892-1.892h2.727a2.557,2.557,0,0,1,2.554,2.554v.363A2.56,2.56,0,0,1,22.012,36.29Z"/><rect class="c" width="5.474" height="4.471" rx="2.05" transform="translate(24.223 35.867)"/><rect class="c" width="5.474" height="4.471" rx="2.05" transform="translate(40.304 35.867)"/><rect class="b" width="7.173" height="6.234" rx="1.892" transform="translate(21.64 41.615)"/><rect class="b" width="7.173" height="6.234" rx="1.892" transform="translate(41.19 41.615)"/><path class="c" d="M29.873,24.043H40.127a7.568,7.568,0,0,1,7.568,7.568h0a1.413,1.413,0,0,1-1.413,1.413H23.709A1.413,1.413,0,0,1,22.3,31.61h0a7.568,7.568,0,0,1,7.577-7.568Z"/><path class="b" d="M46.291,34.921H23.709a3.308,3.308,0,0,1-3.3-3.3,9.478,9.478,0,0,1,9.459-9.459H40.118a9.478,9.478,0,0,1,9.459,9.459,3.308,3.308,0,0,1-3.286,3.3ZM24.219,31.137H45.8a5.676,5.676,0,0,0-5.676-5.2H29.873a5.676,5.676,0,0,0-5.663,5.2Z"/></svg>