<svg xmlns="http://www.w3.org/2000/svg" width="70" height="70" viewBox="0 0 70 70"><defs><style>.a{fill:#068587;}.b{fill:#112f41;}.c{fill:#4fb970;}</style></defs><circle class="a" cx="33.108" cy="33.108" r="33.108" transform="translate(1.892 1.892)"/><path class="b" d="M35,70A35,35,0,1,1,70,35,35,35,0,0,1,35,70ZM35,3.784A31.216,31.216,0,1,0,66.216,35,31.216,31.216,0,0,0,35,3.784Z"/><path class="c" d="M42.918,21.687h3.3v3.3A19.133,19.133,0,0,1,27.083,44.119h-3.3v-3.3A19.134,19.134,0,0,1,42.921,21.687Z" transform="matrix(0.919, -0.394, 0.394, 0.919, -10.131, 16.447)"/><path class="b" d="M29.11,49.527a1.892,1.892,0,0,1-1.741-1.148l-1.3-3.033A21.028,21.028,0,0,1,37.106,17.736l3.03-1.3a1.892,1.892,0,0,1,2.485,1l1.3,3.03A21.028,21.028,0,0,1,32.884,48.073l-3.03,1.3a1.892,1.892,0,0,1-.744.155ZM39.9,20.663l-1.293.552a17.248,17.248,0,0,0-9.056,22.643L30.1,45.15,31.4,44.6a17.241,17.241,0,0,0,9.056-22.64Z"/><path class="b" d="M27.432,53.714a1.892,1.892,0,0,1-1.756-2.6l6.8-17A1.892,1.892,0,1,1,35.99,35.52l-6.8,17A1.892,1.892,0,0,1,27.432,53.714Z"/></svg>