<svg xmlns="http://www.w3.org/2000/svg" width="70" height="70" viewBox="0 0 70 70"><defs><style>.a{fill:#ed553b;}.b{fill:#112f41;}.c{fill:#f2b134;}</style></defs><circle class="a" cx="33.108" cy="33.108" r="33.108" transform="translate(1.892 1.892)"/><path class="b" d="M35,70A35,35,0,1,1,70,35,35,35,0,0,1,35,70ZM35,3.784A31.216,31.216,0,1,0,66.216,35,31.216,31.216,0,0,0,35,3.784Z"/><path class="c" d="M47.25,46.862A17.027,17.027,0,0,1,34.9,52.049c-.315,0-.631,0-.946-.032A17.043,17.043,0,0,1,18.086,37.132c-.063-.492-.1-.987-.12-1.482a17.027,17.027,0,0,1,17.141-17.7c.315,0,.631,0,.946.032A17.043,17.043,0,0,1,51.917,32.868c.06.5.1.99.12,1.482A17,17,0,0,1,47.25,46.862Z"/><path class="b" d="M35,53.944h-.117c-.315,0-.672-.016-1.05-.038A18.944,18.944,0,0,1,16.2,37.365c-.063-.52-.107-1.056-.132-1.636A18.944,18.944,0,0,1,34.991,16.056h.117a10.369,10.369,0,0,1,1.05.038A18.938,18.938,0,0,1,53.783,32.635c.073.583.117,1.119.136,1.646a18.777,18.777,0,0,1-5.319,13.9h0A18.8,18.8,0,0,1,35,53.944Zm0-34.1A15.16,15.16,0,0,0,19.865,35.577c.019.467.054.9.107,1.315a15,15,0,0,0,4.493,9,15.163,15.163,0,0,0,9.589,4.244c.315.019.583.028.842.032h.095A15.16,15.16,0,0,0,50.135,34.423a11.155,11.155,0,0,0-.107-1.324A15.151,15.151,0,0,0,35.946,19.865c-.315-.019-.58-.028-.839-.032Z"/><path class="b" d="M19.136,39.055h-.12a10.309,10.309,0,0,1-1.047-.038,1.892,1.892,0,0,1-1.763-1.649c-.066-.523-.11-1.059-.136-1.64A18.944,18.944,0,0,1,34.991,16.056h.117a10.369,10.369,0,0,1,1.05.038,1.892,1.892,0,0,1,1.763,1.659c.073.577.117,1.113.136,1.64a18.786,18.786,0,0,1-5.323,13.9h0a18.79,18.79,0,0,1-13.6,5.764Zm15.154-19.19a15.157,15.157,0,0,0-14.448,15.4,15.157,15.157,0,0,0,14.448-15.4Z"/><path class="b" d="M35,53.944h-.117c-.315,0-.672-.016-1.05-.038a1.892,1.892,0,0,1-1.763-1.649c-.066-.523-.11-1.063-.132-1.643A18.938,18.938,0,0,1,50.857,30.945h.12a10.308,10.308,0,0,1,1.047.038,1.892,1.892,0,0,1,1.766,1.659c.069.577.114,1.113.132,1.64a18.777,18.777,0,0,1-5.319,13.9h0A18.8,18.8,0,0,1,35,53.944Zm15.157-19.2A15.157,15.157,0,0,0,35.709,50.135a15.157,15.157,0,0,0,14.448-15.4Z"/><path class="b" d="M46.14,47.846A243.468,243.468,0,0,0,21.394,24.828l2.381-2.942A247.552,247.552,0,0,1,48.905,45.27Z"/></svg>