<svg xmlns="http://www.w3.org/2000/svg" width="25" height="25" viewBox="0 0 25 25"><defs><style>.a{fill:none;}.b,.c{stroke:none;}.c{fill:#112f41;}</style></defs><g transform="translate(-322.526 -15.526)"><g class="a" transform="translate(1106 1377)"><path class="b" d="M-774.329-1336.474h0a12.9,12.9,0,0,1-3.1-1.284,3.751,3.751,0,0,0,.2-1.2,3.761,3.761,0,0,0-3.757-3.757,3.75,3.75,0,0,0-1.2.2,12.87,12.87,0,0,1-1.284-3.1,3.74,3.74,0,0,0,2.065-3.355,3.741,3.741,0,0,0-2.065-3.355,12.87,12.87,0,0,1,1.284-3.1,3.754,3.754,0,0,0,1.2.2,3.761,3.761,0,0,0,3.757-3.757,3.751,3.751,0,0,0-.2-1.2,12.863,12.863,0,0,1,3.1-1.284,3.741,3.741,0,0,0,3.355,2.065,3.741,3.741,0,0,0,3.355-2.065,12.864,12.864,0,0,1,3.1,1.284,3.752,3.752,0,0,0-.2,1.2,3.761,3.761,0,0,0,3.757,3.757,3.751,3.751,0,0,0,1.2-.2,12.865,12.865,0,0,1,1.284,3.1,3.741,3.741,0,0,0-2.065,3.355,3.741,3.741,0,0,0,2.065,3.355,12.865,12.865,0,0,1-1.284,3.1,3.749,3.749,0,0,0-1.2-.2,3.761,3.761,0,0,0-3.757,3.757,3.751,3.751,0,0,0,.2,1.2,12.862,12.862,0,0,1-3.1,1.284,3.743,3.743,0,0,0-3.356-2.065,3.741,3.741,0,0,0-3.355,2.065Zm3.355-16.257a3.761,3.761,0,0,0-3.757,3.756,3.761,3.761,0,0,0,3.757,3.756,3.761,3.761,0,0,0,3.757-3.756A3.761,3.761,0,0,0-770.974-1352.73Z"/><path class="c" d="M -774.3291015625 -1336.4736328125 L -774.3297729492188 -1336.473876953125 C -775.4133911132813 -1336.7646484375 -776.4563598632813 -1337.196655273438 -777.4298706054688 -1337.758178710938 C -777.3004150390625 -1338.14306640625 -777.2345581054688 -1338.546020507813 -777.2345581054688 -1338.956787109375 C -777.2345581054688 -1341.028198242188 -778.9197387695313 -1342.71337890625 -780.9911499023438 -1342.71337890625 C -781.4013671875 -1342.71337890625 -781.8046264648438 -1342.647583007813 -782.1898193359375 -1342.517944335938 C -782.7523803710938 -1343.493286132813 -783.1840209960938 -1344.536499023438 -783.4738159179688 -1345.619018554688 C -782.2000122070313 -1346.262573242188 -781.408935546875 -1347.547729492188 -781.408935546875 -1348.973876953125 C -781.408935546875 -1350.39990234375 -782.2001342773438 -1351.685424804688 -783.4738159179688 -1352.328857421875 C -783.1835327148438 -1353.413208007813 -782.7513427734375 -1354.456298828125 -782.1898193359375 -1355.429809570313 C -781.8048095703125 -1355.300415039063 -781.40185546875 -1355.234497070313 -780.9911499023438 -1355.234497070313 C -778.9197387695313 -1355.234497070313 -777.2345581054688 -1356.919677734375 -777.2345581054688 -1358.991088867188 C -777.2345581054688 -1359.401123046875 -777.30029296875 -1359.804443359375 -777.4298706054688 -1360.189575195313 C -776.455078125 -1360.751953125 -775.411865234375 -1361.183715820313 -774.3286743164063 -1361.4736328125 C -773.6849365234375 -1360.199829101563 -772.3997802734375 -1359.40869140625 -770.9738159179688 -1359.40869140625 C -769.5478515625 -1359.40869140625 -768.2622680664063 -1360.199951171875 -767.6188354492188 -1361.4736328125 C -766.5338745117188 -1361.183227539063 -765.4909057617188 -1360.751220703125 -764.5177612304688 -1360.189819335938 C -764.647216796875 -1359.804931640625 -764.713134765625 -1359.40185546875 -764.713134765625 -1358.991088867188 C -764.713134765625 -1356.919677734375 -763.0279541015625 -1355.234497070313 -760.95654296875 -1355.234497070313 C -760.5463256835938 -1355.234497070313 -760.1429443359375 -1355.30029296875 -759.7577514648438 -1355.429931640625 C -759.1953735351563 -1354.455200195313 -758.7637329101563 -1353.411865234375 -758.4737548828125 -1352.328735351563 C -759.7476806640625 -1351.684936523438 -760.5387573242188 -1350.39990234375 -760.5387573242188 -1348.973876953125 C -760.5387573242188 -1347.548217773438 -759.7474975585938 -1346.262817382813 -758.4737548828125 -1345.619140625 C -758.76416015625 -1344.5341796875 -759.1962890625 -1343.4912109375 -759.7577514648438 -1342.517944335938 C -760.142578125 -1342.6474609375 -760.5455932617188 -1342.71337890625 -760.95654296875 -1342.71337890625 C -763.0279541015625 -1342.71337890625 -764.713134765625 -1341.028198242188 -764.713134765625 -1338.956787109375 C -764.713134765625 -1338.546630859375 -764.6473999023438 -1338.143310546875 -764.5177612304688 -1337.758056640625 C -765.4921264648438 -1337.19580078125 -766.5350952148438 -1336.764404296875 -767.6181030273438 -1336.474365234375 C -768.262451171875 -1337.748168945313 -769.5479125976563 -1338.539184570313 -770.9738159179688 -1338.539184570313 C -772.3997802734375 -1338.539184570313 -773.6853637695313 -1337.747924804688 -774.3287963867188 -1336.474243164063 L -774.3291015625 -1336.4736328125 Z M -770.9738159179688 -1352.730346679688 C -773.0452270507813 -1352.730346679688 -774.7304077148438 -1351.045288085938 -774.7304077148438 -1348.973876953125 C -774.7304077148438 -1346.902465820313 -773.0452270507813 -1345.217407226563 -770.9738159179688 -1345.217407226563 C -768.9024047851563 -1345.217407226563 -767.2172241210938 -1346.902465820313 -767.2172241210938 -1348.973876953125 C -767.2172241210938 -1351.045288085938 -768.9024047851563 -1352.730346679688 -770.9738159179688 -1352.730346679688 Z"/></g></g></svg>