<svg xmlns="http://www.w3.org/2000/svg" width="70" height="70" viewBox="0 0 70 70"><defs><style>.a{fill:#56b470;stroke:#122f41;stroke-linejoin:round;stroke-width:3.74px;}.b{fill:#0b8688;}.c{fill:#122f41;}</style></defs><g transform="translate(-0.022 -0.022)"><circle class="a" cx="33.13" cy="33.13" r="33.13" transform="translate(1.892 1.892)"/><path class="b" d="M26.566,50.851h0a11.959,11.959,0,0,1-2.238-13.813L35.022,15.692,45.715,37.038A11.952,11.952,0,0,1,43.48,50.851h0a11.959,11.959,0,0,1-16.914,0Z"/><path class="c" d="M35.022,56.224a13.713,13.713,0,0,1-9.777-4.052h0A13.807,13.807,0,0,1,22.658,36.2l10.69-21.346a1.87,1.87,0,0,1,3.344,0L47.386,36.2A13.832,13.832,0,0,1,35.019,56.224Zm0-36.359L26,37.877a10.07,10.07,0,0,0,1.87,11.653h0A10.092,10.092,0,0,0,44.029,37.877Z"/><path class="b" d="M36.044,48.763a6.42,6.42,0,0,1-5.566-1.8h0a6.427,6.427,0,0,1-1.742-5.9"/><path class="c" d="M35.034,50.714a8.3,8.3,0,0,1-8.125-10.045,1.87,1.87,0,0,1,3.656.782,4.56,4.56,0,0,0,5.183,5.46,1.87,1.87,0,1,1,.589,3.693,7.985,7.985,0,0,1-1.3.109Z"/></g></svg>